<svg xmlns="http://www.w3.org/2000/svg" viewBox="0 0 26 26" shape-rendering="crispEdges"><g fill="#3d2710"><rect x="11" y="0" width="4" height="4"/><rect x="11" y="22" width="4" height="4"/><rect x="0" y="11" width="4" height="4"/><rect x="22" y="11" width="4" height="4"/><rect x="4" y="4" width="3" height="3"/><rect x="19" y="4" width="3" height="3"/><rect x="4" y="19" width="3" height="3"/><rect x="19" y="19" width="3" height="3"/><rect x="5" y="5" width="16" height="16"/></g><rect x="8" y="8" width="10" height="10" fill="#ffd24a"/><rect x="12" y="12" width="2" height="2" fill="#3d2710"/><g fill="#3d2710"><rect x="12" y="8" width="2" height="2"/><rect x="12" y="16" width="2" height="2"/><rect x="8" y="12" width="2" height="2"/><rect x="16" y="12" width="2" height="2"/></g></svg>
